<svg id="a96cdbf4-e3db-4f7b-aa20-67e937c1cfee" data-name="Layer 1" xmlns="http://www.w3.org/2000/svg" xmlns:xlink="http://www.w3.org/1999/xlink" viewBox="0 0 200 196.92"><defs><style>.facbb638-f2f6-435e-b129-cdd90b4e3c0c{fill:url(#a7eb0b94-1306-4f6f-b83a-05b7a94171c2);}</style><linearGradient id="a7eb0b94-1306-4f6f-b83a-05b7a94171c2" x1="25" y1="123.46" x2="225" y2="123.46" gradientUnits="userSpaceOnUse"><stop offset="0" stop-color="#ff9501"/><stop offset="1" stop-color="#fd4449"/></linearGradient></defs><title>Github_icon_colored</title><path class="facbb638-f2f6-435e-b129-cdd90b4e3c0c" d="M125,25a99.94,99.94,0,0,0-24.23,196.92,14.52,14.52,0,0,1-.77-4.86V200H87.43c-6.84,0-12.92-2.95-15.87-8.41-3.28-6.08-3.84-15.37-12-21.05-2.41-1.89-.57-4,2.2-3.76,5.13,1.45,9.38,5,13.38,10.18s5.85,6.41,13.3,6.41a95.69,95.69,0,0,0,14.09-1C105.3,175.39,110,169,115.8,166c-33.3-3.42-49.19-20-49.19-42.48,0-9.68,4.12-19,11.13-26.94-2.3-7.83-5.19-23.81.89-29.89,15,0,24,9.71,26.21,12.34a75.58,75.58,0,0,1,48.64,0c2.14-2.61,11.21-12.36,26.23-12.36,6.1,6.09,3.17,22.13.85,30,7,7.87,11.06,17.21,11.06,26.88,0,22.48-15.86,39-49.11,42.47,9.15,4.78,15.82,18.2,15.82,28.3v22.79a14.71,14.71,0,0,1-.29,2.23A99.94,99.94,0,0,0,125,25Z" transform="translate(-25 -25)"/></svg>