<svg id="b5678215-9e7d-45ab-8bdc-086237a498bd" data-name="Layer 1" xmlns="http://www.w3.org/2000/svg" xmlns:xlink="http://www.w3.org/1999/xlink" viewBox="0 0 229.17 208.33"><defs><style>.e6777a7d-c3f6-4c40-bd2b-20147c702fe2{fill:url(#ea2fdeb6-72d2-4a00-bd3a-a6272ebb9f6d);}.b32c1d13-e227-40ff-898d-835b6c3260df{opacity:0.3;}.a3c0f858-ac60-4e83-92a0-a1353f877996{fill:url(#b0c89be6-4c52-4939-8d41-764fbba5f297);}.b706aac5-8f9a-47d8-a7a2-a95a7d943f7d{fill:url(#b5f2a116-f058-43b3-aa80-0838f2dbc580);}</style><linearGradient id="ea2fdeb6-72d2-4a00-bd3a-a6272ebb9f6d" x1="10.42" y1="125" x2="239.58" y2="125" gradientUnits="userSpaceOnUse"><stop offset="0" stop-color="#ff9501"/><stop offset="1" stop-color="#fd4449"/></linearGradient><linearGradient id="b0c89be6-4c52-4939-8d41-764fbba5f297" x1="47.06" y1="52.08" x2="202.95" y2="52.08" xlink:href="#ea2fdeb6-72d2-4a00-bd3a-a6272ebb9f6d"/><linearGradient id="b5f2a116-f058-43b3-aa80-0838f2dbc580" x1="47.06" y1="197.92" x2="202.94" y2="197.92" xlink:href="#ea2fdeb6-72d2-4a00-bd3a-a6272ebb9f6d"/></defs><title>Website_icon_colored</title><path class="e6777a7d-c3f6-4c40-bd2b-20147c702fe2" d="M189.65,177.08a83.63,83.63,0,0,1-35.87,26,138.59,138.59,0,0,0,7.87-26H140.22c-5,20.6-12,31.25-15.23,31.25s-10.24-10.65-15.23-31.25H88.34a138.59,138.59,0,0,0,7.87,26,83.66,83.66,0,0,1-35.86-26H34.93a103.92,103.92,0,0,0,180.14,0ZM60.35,72.92a83.63,83.63,0,0,1,35.87-26,137.84,137.84,0,0,0-7.88,26h21.43c5-20.6,12-31.25,15.23-31.25s10.24,10.65,15.23,31.25h21.43a138.59,138.59,0,0,0-7.87-26,83.66,83.66,0,0,1,35.86,26h25.42a103.92,103.92,0,0,0-180.14,0Zm-.43,55.89,5.6-35.06H81.18l-12.94,62.5H54.67l-8.84-36.16L37,156.25H23.35L10.42,93.75h15.7l5.55,35.13L40,93.75H51.6Zm79.21,0,5.6-35.06h15.66l-12.94,62.5H133.88L125,120.09l-8.85,36.16H102.56L89.63,93.75h15.7l5.55,35.13,8.32-35.13h11.61Zm79.19,0,5.61-35.06h15.65l-12.93,62.5H213.07l-8.83-36.16-8.84,36.16H181.76l-12.94-62.5h15.71l5.54,35.13,8.33-35.13H210Z" transform="translate(-10.42 -20.83)"/><g class="b32c1d13-e227-40ff-898d-835b6c3260df"><path class="a3c0f858-ac60-4e83-92a0-a1353f877996" d="M47.06,72.92H203a93.73,93.73,0,0,0-155.89,0Z" transform="translate(-10.42 -20.83)"/></g><g class="b32c1d13-e227-40ff-898d-835b6c3260df"><path class="b706aac5-8f9a-47d8-a7a2-a95a7d943f7d" d="M202.94,177.08H47.06a93.72,93.72,0,0,0,155.88,0Z" transform="translate(-10.42 -20.83)"/></g></svg>