<svg id="f7109066-69df-4251-9ddd-7f1ecd2d8f86" data-name="Layer 1" xmlns="http://www.w3.org/2000/svg" viewBox="0 0 229.17 208.33"><defs><style>.b4af7452-aa73-45b8-a71f-a89c7de95c70{fill:#fff;}.a4e2df35-c283-4d7b-ab05-8aa9adc99acb{opacity:0.3;}</style></defs><title>Website_icon</title><path class="b4af7452-aa73-45b8-a71f-a89c7de95c70" d="M189.65,177.08a83.63,83.63,0,0,1-35.87,26,138.59,138.59,0,0,0,7.87-26H140.22c-5,20.6-12,31.25-15.23,31.25s-10.24-10.65-15.23-31.25H88.34a138.59,138.59,0,0,0,7.87,26,83.66,83.66,0,0,1-35.86-26H34.93a103.92,103.92,0,0,0,180.14,0ZM60.35,72.92a83.63,83.63,0,0,1,35.87-26,137.84,137.84,0,0,0-7.88,26h21.43c5-20.6,12-31.25,15.23-31.25s10.24,10.65,15.23,31.25h21.43a138.59,138.59,0,0,0-7.87-26,83.66,83.66,0,0,1,35.86,26h25.42a103.92,103.92,0,0,0-180.14,0Zm-.43,55.89,5.6-35.06H81.18l-12.94,62.5H54.67l-8.84-36.16L37,156.25H23.35L10.42,93.75h15.7l5.55,35.13L40,93.75H51.6Zm79.21,0,5.6-35.06h15.66l-12.94,62.5H133.88L125,120.09l-8.85,36.16H102.56L89.63,93.75h15.7l5.55,35.13,8.32-35.13h11.61Zm79.19,0,5.61-35.06h15.65l-12.93,62.5H213.07l-8.83-36.16-8.84,36.16H181.76l-12.94-62.5h15.71l5.54,35.13,8.33-35.13H210Z" transform="translate(-10.42 -20.83)"/><g class="a4e2df35-c283-4d7b-ab05-8aa9adc99acb"><path class="b4af7452-aa73-45b8-a71f-a89c7de95c70" d="M47.06,72.92H203a93.73,93.73,0,0,0-155.89,0Z" transform="translate(-10.42 -20.83)"/></g><g class="a4e2df35-c283-4d7b-ab05-8aa9adc99acb"><path class="b4af7452-aa73-45b8-a71f-a89c7de95c70" d="M202.94,177.08H47.06a93.72,93.72,0,0,0,155.88,0Z" transform="translate(-10.42 -20.83)"/></g></svg>